<?xml version="1.0" encoding="UTF-8"?><svg id="Ebene_1" xmlns="http://www.w3.org/2000/svg" viewBox="0 0 2000 2000"><defs><style>.cls-1{fill:#3c3c3b;}.cls-2{font-family:Impact, Impact;font-size:1083px;stroke:#008d36;stroke-miterlimit:10;stroke-width:21px;}.cls-2,.cls-3{fill:#1d1d1b;}</style></defs><rect class="cls-3" x="470.62" y="1331.43" width="587.81" height="150.41" transform="translate(-607.09 580.93) rotate(-30.43)"/><rect class="cls-3" x="197.18" y="1394.9" width="399.66" height="150.41" transform="translate(633.4 -34.2) rotate(24.04)"/><rect class="cls-3" x="86.68" y="1197.81" width="387.83" height="150.73" transform="translate(1577.32 1138.22) rotate(96.49)"/><rect class="cls-3" x="289.14" y="1032.29" width="84.26" height="130.06" transform="translate(-786.6 843.88) rotate(-60.43)"/><rect class="cls-3" x="236.14" y="1045.85" width="80.6" height="55.37" transform="translate(-537.3 320.73) rotate(-32.79)"/><polygon class="cls-3" points="359.69 1167.24 452.93 1117.92 354.21 1061.9 359.69 1167.24"/><rect class="cls-3" x="983.53" y="1280.2" width="129.73" height="76.47" transform="translate(-262.18 2376.63) rotate(-90.43)"/><rect class="cls-3" x="970.78" y="1198.25" width="83.53" height="122.33" transform="translate(-582.53 1518.5) rotate(-60.43)"/><polygon class="cls-3" points="958.55 1359.48 1087.39 1420.65 1086.46 1296.39 958.55 1359.48"/><rect class="cls-1" x="219.22" y="944.75" width="587.81" height="150.41" transform="translate(577.79 -119.97) rotate(29.95)"/><rect class="cls-1" x="76.48" y="656.62" width="399.66" height="150.41" transform="translate(977.82 385.72) rotate(84.42)"/><rect class="cls-1" x="196.05" y="457.93" width="387.83" height="150.73" transform="translate(958.09 870.52) rotate(156.87)"/><rect class="cls-1" x="525.75" y="425.4" width="84.26" height="130.06"/><rect class="cls-1" x="521.17" y="403.33" width="80.6" height="55.37" transform="translate(263.5 -211.04) rotate(27.59)"/><polygon class="cls-1" points="521.15 549.7 610.1 606.38 610.01 492.87 521.15 549.7"/><rect class="cls-1" x="665.23" y="1184.9" width="129.73" height="76.47" transform="translate(-514.32 529.94) rotate(-30.05)"/><rect class="cls-1" x="721.91" y="1101.63" width="83.53" height="122.33"/><polygon class="cls-1" points="650.01 1165.32 660.51 1307.56 768.08 1245.33 650.01 1165.32"/><rect class="cls-3" x="447.86" y="535.73" width="587.81" height="150.41" transform="translate(1345.12 -137.01) rotate(89.42)"/><rect class="cls-3" x="669.78" y="185.37" width="399.66" height="150.41" transform="translate(1725.72 -41.45) rotate(143.89)"/><rect class="cls-3" x="904.44" y="182.23" width="387.83" height="150.73" transform="translate(1830.57 1115.85) rotate(-143.67)"/><rect class="cls-3" x="1183.54" y="324.03" width="84.26" height="130.06" transform="translate(937.01 -864.06) rotate(59.42)"/><rect class="cls-3" x="1233.29" y="325.66" width="80.6" height="55.37" transform="translate(1561.08 -936.7) rotate(87.06)"/><polygon class="cls-3" points="1150.88 378.92 1147.26 484.34 1244.98 426.59 1150.88 378.92"/><rect class="cls-3" x="612.14" y="862.81" width="129.73" height="76.47" transform="translate(529.85 -216.35) rotate(29.42)"/><rect class="cls-3" x="704.27" y="838.15" width="83.53" height="122.33" transform="translate(1140.68 -200.5) rotate(59.42)"/><polygon class="cls-3" points="686.11 802.69 568.94 884 677.18 945.04 686.11 802.69"/><rect class="cls-1" x="890.95" y="521.72" width="587.81" height="150.41" transform="translate(2508.51 506.83) rotate(149.37)"/><rect class="cls-1" x="1352.31" y="456.94" width="399.66" height="150.41" transform="translate(2756.81 1646.19) rotate(-156.16)"/><rect class="cls-1" x="1475.34" y="653.29" width="387.83" height="150.73" transform="translate(762.33 2308.16) rotate(-83.72)"/><rect class="cls-1" x="1577.09" y="839.65" width="84.26" height="130.06" transform="translate(3201.71 -62.8) rotate(119.37)"/><rect class="cls-1" x="1633.83" y="900.59" width="80.6" height="55.37" transform="translate(3583.76 795.23) rotate(147.01)"/><polygon class="cls-1" points="1590.54 834.87 1497.48 884.52 1596.4 940.19 1590.54 834.87"/><rect class="cls-1" x="836.44" y="647.92" width="129.73" height="76.47" transform="translate(1577.45 -222.68) rotate(89.37)"/><rect class="cls-1" x="895.6" y="683.87" width="83.53" height="122.33" transform="translate(2046.35 293.49) rotate(119.37)"/><polygon class="cls-1" points="991 644.78 861.94 584.07 863.31 708.33 991 644.78"/><rect class="cls-3" x="1149.58" y="900.92" width="587.81" height="150.41" transform="translate(2200.59 2545.6) rotate(-149.82)"/><rect class="cls-3" x="1479.32" y="1189.98" width="399.66" height="150.41" transform="translate(576.02 3054.97) rotate(-95.35)"/><rect class="cls-3" x="1370.79" y="1387.9" width="387.83" height="150.73" transform="translate(-446.13 724.37) rotate(-22.9)"/><rect class="cls-3" x="1344.5" y="1440.39" width="84.26" height="130.06" transform="translate(2768.52 3015.19) rotate(-179.82)"/><rect class="cls-3" x="1352.51" y="1537.18" width="80.6" height="55.37" transform="translate(1894.31 3598.87) rotate(-152.18)"/><polygon class="cls-3" points="1433.59 1446.34 1344.86 1389.31 1344.51 1502.81 1433.59 1446.34"/><rect class="cls-3" x="1162.45" y="733.85" width="129.73" height="76.47" transform="translate(2676.06 831.63) rotate(150.18)"/><rect class="cls-3" x="1151.73" y="771.12" width="83.53" height="122.33" transform="translate(2384.36 1668.32) rotate(-179.82)"/><polygon class="cls-3" points="1307.17 830.22 1297.24 687.94 1189.43 749.73 1307.17 830.22"/><rect class="cls-1" x="926.25" y="1316.7" width="587.81" height="150.41" transform="translate(-174.58 2608.81) rotate(-89.87)"/><rect class="cls-1" x="888.11" y="1665.43" width="399.66" height="150.41" transform="translate(-807.13 951.89) rotate(-35.4)"/><rect class="cls-1" x="665.26" y="1665.39" width="387.83" height="150.73" transform="translate(1222.22 -166.24) rotate(37.05)"/><rect class="cls-1" x="691.39" y="1542.68" width="84.26" height="130.06" transform="translate(-295.38 3044.42) rotate(-119.87)"/><rect class="cls-1" x="644.85" y="1615.14" width="80.6" height="55.37" transform="translate(-929.8 2391.29) rotate(-92.23)"/><polygon class="cls-1" points="808.17 1618.78 813.12 1513.42 714.68 1569.95 808.17 1618.78"/><rect class="cls-1" x="1223.67" y="1064.39" width="129.73" height="76.47" transform="translate(1849.41 2703.09) rotate(-149.87)"/><rect class="cls-1" x="1177.72" y="1042.32" width="83.53" height="122.33" transform="translate(869.85 2710.53) rotate(-119.87)"/><polygon class="cls-1" points="1278.2 1200.85 1396.38 1121.01 1288.91 1058.63 1278.2 1200.85"/><text class="cls-2" transform="translate(513.12 1391.9)"><tspan x="0" y="0">r8</tspan></text></svg>